<?xml version="1.0" encoding="utf-8"?>
<!-- Generator: Adobe Illustrator 24.2.0, SVG Export Plug-In . SVG Version: 6.00 Build 0)  -->
<svg version="1.1" id="Layer_1" xmlns="http://www.w3.org/2000/svg" xmlns:xlink="http://www.w3.org/1999/xlink" x="0px" y="0px"
	 viewBox="0 0 1052.7 250.4" style="enable-background:new 0 0 1052.7 250.4;" xml:space="preserve">
<style type="text/css">
	.st0{fill:url(#SVGID_1_);}
	.st1{fill:#FFFFFF;}
	.st2{fill:url(#SVGID_2_);}
	.st3{fill:url(#SVGID_3_);}
	.st4{fill:url(#SVGID_4_);}
	.st5{fill:none;}
</style>
<linearGradient id="SVGID_1_" gradientUnits="userSpaceOnUse" x1="386.9901" y1="363.9944" x2="897.0089" y2="-63.9545" gradientTransform="matrix(1 0 0 -1 0 251)">
	<stop  offset="0" style="stop-color:#328B31"/>
	<stop  offset="1" style="stop-color:#96CF24"/>
</linearGradient>
<path class="st0" d="M290.5,129.4h87.2V101h-54V2h-33.2V129.4z M522.3,129.4L468.9,2h-34.2l-54.7,127.4h34.2l8.9-22.5h55l8.7,22.5
	H522.3z M450.9,36l17.4,45.4h-35.3L450.9,36z M561.2,76.9V2H528v74.9c0,11,2.4,20.7,7.2,29c4.7,8.2,11.8,14.9,20.3,19.1
	c8.8,4.5,19,6.7,30.6,6.7s21.8-2.2,30.4-6.7c8.4-4.3,15.4-10.9,20-19.2c4.7-8.3,7-18,7-29V2h-33.3v74.9c0,8.1-2.2,14.6-6.6,19.3
	c-4.4,4.8-10.2,7.2-17.3,7.2c-7.3,0-13.3-2.4-18-7.3C563.6,91.3,561.2,84.9,561.2,76.9z M753.5,78.7L695.5,2h-29.3v127.4h31.1V53.2
	l57.8,76.1h29.1V2h-30.9L753.5,78.7z M901.2,45.2L920.5,22c-6.6-6.9-14.6-12.4-23.5-16.1c-20.2-8.7-43.3-7.8-62.8,2.6
	c-20.9,11.2-33.7,33.2-33.3,56.9c-0.2,11.8,2.8,23.5,8.7,33.8c5.7,9.9,14,18.2,24,23.8c19.2,10.8,42.4,11.6,62.4,2.3
	c9.3-4.1,17.6-10,24.6-17.3L901.2,87c-4.4,4.5-9.6,8.2-15.3,10.9c-5.1,2.5-10.7,3.9-16.3,4c-6.2,0.1-12.3-1.6-17.6-4.8
	c-5.3-3.2-9.5-7.8-12.4-13.3c-3.1-5.8-4.6-12.3-4.5-18.8c-0.1-6.6,1.5-13,4.5-18.8c2.9-5.5,7.1-10,12.4-13.2
	c5.3-3.2,11.4-4.9,17.5-4.8c5.9,0.1,11.7,1.7,16.9,4.6C892.1,35.9,897.2,40.1,901.2,45.2z M934.8,129.4h33.3V80.5h51.4v48.9h33.3V2
	h-33.3v52h-51.4V2h-33.3V129.4z M292.1,169.7h58l-59.6,73.1v6.8h71.3v-7.8h-60l59.5-73.3V162h-69.1V169.7z M418.5,161.2
	c-8.1-0.1-16,2-23,6c-6.9,3.8-12.6,9.4-16.6,16.1c-4.1,6.7-6.2,14.5-6.1,22.3c-0.1,7.9,2.1,15.7,6.1,22.5
	c13.1,21.9,41.5,29,63.4,15.9c6.5-3.9,12-9.4,15.9-15.9c4.1-6.8,6.2-14.6,6.1-22.5c0.1-7.9-2.1-15.6-6.1-22.3
	c-4-6.7-9.8-12.3-16.6-16.1C434.5,163.2,426.5,161.1,418.5,161.2z M418.6,169c6.5,0,12.8,1.6,18.4,4.9c5.6,3.2,10.2,7.8,13.5,13.3
	c3.3,5.6,5.1,12,5,18.4c0,6.5-1.7,12.9-5,18.6c-3.3,5.6-7.9,10.2-13.5,13.5c-5.6,3.3-11.9,5-18.4,4.9c-6.5,0.1-13-1.7-18.6-4.9
	c-5.6-3.2-10.3-7.9-13.6-13.5c-3.3-5.6-5-12-5-18.6c-0.1-6.5,1.7-12.9,5-18.4C393.2,175.9,405.4,169,418.6,169L418.6,169z
	 M546.9,236.2L492.5,162h-9.2v87.7h8.7v-74.3l54.3,74.3h9.2V162h-8.5L546.9,236.2z M583.2,249.7h60.3v-7.8h-51.7v-33h44.8v-7.8
	h-44.8v-31.4h50.1V162h-58.7V249.7z"/>
<g>
	<circle class="st1" cx="130.3" cy="125.6" r="114.7"/>
	<g id="Layer_2_2_">
		<g id="Layer_1-2_1_">
			
				<linearGradient id="SVGID_2_" gradientUnits="userSpaceOnUse" x1="46.1212" y1="30.1918" x2="212.4632" y2="219.4099" gradientTransform="matrix(1 0 0 -1 0 251)">
				<stop  offset="0" style="stop-color:#328B31"/>
				<stop  offset="1" style="stop-color:#96CF24"/>
			</linearGradient>
			<path class="st2" d="M245.3,76.7C218.5,13.1,145.2-16.8,81.6,10.1S-11.8,110.1,15,173.7s100.1,93.4,163.7,66.6c0,0,0,0,0,0
				C242.3,213.6,272.1,140.3,245.3,76.7C245.3,76.7,245.3,76.7,245.3,76.7z M129.9,229.3c-57.4,0-104-46.6-104-104s46.6-104,104-104
				s104,46.6,104,104S187.3,229.3,129.9,229.3z"/>
			
				<linearGradient id="SVGID_3_" gradientUnits="userSpaceOnUse" x1="71.6552" y1="7.7769" x2="237.9665" y2="196.9951" gradientTransform="matrix(1 0 0 -1 0 251)">
				<stop  offset="0" style="stop-color:#328B31"/>
				<stop  offset="1" style="stop-color:#96CF24"/>
			</linearGradient>
			<polygon class="st3" points="152.9,209.6 214.2,148.2 152.9,86.8 130.3,109.3 169,148.2 130.3,187 			"/>
			
				<linearGradient id="SVGID_4_" gradientUnits="userSpaceOnUse" x1="20.6183" y1="52.6368" x2="186.9602" y2="241.8549" gradientTransform="matrix(1 0 0 -1 0 251)">
				<stop  offset="0" style="stop-color:#328B31"/>
				<stop  offset="1" style="stop-color:#96CF24"/>
			</linearGradient>
			<polygon class="st4" points="107.2,41.1 45.8,102.5 107.2,163.9 129.7,141.4 91,102.5 129.8,63.7 			"/>
			<line class="st5" x1="214.3" y1="148.2" x2="191.7" y2="125.6"/>
		</g>
	</g>
</g>
</svg>
